<svg width="50" height="50" viewBox="0 0 50 50" fill="none" xmlns="http://www.w3.org/2000/svg">
<path d="M44.0435 36.5223C42.4927 34.9598 38.7369 32.6795 36.9146 31.7606C34.5416 30.5653 34.3463 30.4676 32.481 31.8534C31.2369 32.7782 30.4097 33.6043 28.9537 33.2938C27.4976 32.9832 24.3336 31.2323 21.5631 28.4705C18.7926 25.7088 16.94 22.453 16.6285 21.0018C16.317 19.5506 17.1568 18.7332 18.0728 17.4862C19.3638 15.7283 19.2662 15.4354 18.1627 13.0623C17.3023 11.2166 14.9556 7.49593 13.3873 5.95296C11.7095 4.29573 11.7095 4.5887 10.6285 5.03792C9.74838 5.40822 8.90404 5.85834 8.10603 6.38265C6.54353 7.42073 5.67634 8.28304 5.06989 9.57894C4.46345 10.8748 4.19099 13.9129 7.32282 19.6024C10.4547 25.2918 12.6519 28.201 17.1998 32.7362C21.7476 37.2713 25.2447 39.7098 30.357 42.577C36.6812 46.119 39.107 45.4285 40.4068 44.8231C41.7066 44.2176 42.5728 43.3582 43.6129 41.7957C44.1385 40.9991 44.5897 40.1557 44.9605 39.2762C45.4107 38.1991 45.7037 38.1991 44.0435 36.5223Z" stroke="#F5C45E" stroke-width="2" stroke-miterlimit="10"/>
</svg>
