<svg width="50" height="51" viewBox="0 0 50 51" fill="none" xmlns="http://www.w3.org/2000/svg">
<path d="M25 5.1875C17.2363 5.1875 10.9375 11.1826 10.9375 18.5664C10.9375 27.0625 20.3125 40.5264 23.7549 45.1768C23.8978 45.3731 24.0851 45.5328 24.3014 45.6429C24.5178 45.7531 24.7572 45.8105 25 45.8105C25.2428 45.8105 25.4822 45.7531 25.6986 45.6429C25.9149 45.5328 26.1022 45.3731 26.2451 45.1768C29.6875 40.5283 39.0625 27.0693 39.0625 18.5664C39.0625 11.1826 32.7637 5.1875 25 5.1875Z" stroke="#F5C45E" stroke-width="2" stroke-linecap="round" stroke-linejoin="round"/>
<path d="M25 23.9375C27.5888 23.9375 29.6875 21.8388 29.6875 19.25C29.6875 16.6612 27.5888 14.5625 25 14.5625C22.4112 14.5625 20.3125 16.6612 20.3125 19.25C20.3125 21.8388 22.4112 23.9375 25 23.9375Z" stroke="#F5C45E" stroke-width="2" stroke-linecap="round" stroke-linejoin="round"/>
</svg>
