<svg width="87" height="426" viewBox="0 0 87 426" fill="none" xmlns="http://www.w3.org/2000/svg">
<path d="M33.4757 296.246C38.1688 296.246 41.7925 298.465 44.357 302.897C46.8455 307.222 48.0923 313.157 48.0923 320.709C48.0923 322.803 48.0213 326.914 47.8743 333.041C40.3785 332.664 32.1124 332.478 23.0657 332.478C14.5562 332.478 7.08576 332.664 0.65426 333.041L0.65426 328.204C0.65426 327.263 0.618803 325.371 0.547849 322.522C0.476895 319.672 0.441406 317.606 0.441406 316.316C0.441406 305.138 3.91309 299.552 10.8514 299.552C16.2693 299.552 19.8677 302.198 21.6567 307.492H22.0216C23.2329 299.997 27.0493 296.252 33.4807 296.252L33.4757 296.246ZM12.6607 306.321C7.65339 306.321 5.15479 310.065 5.15479 317.561C5.15479 321.322 5.33725 324.369 5.69709 326.706C7.43547 326.492 12.3566 326.385 20.4556 326.385C20.5063 325.067 20.5265 323.62 20.5265 322.032C20.5265 316.71 19.9843 312.842 18.8946 310.426C17.6833 307.683 15.6054 306.315 12.6557 306.315L12.6607 306.321ZM34.094 303.054C28.144 303.054 25.174 308.911 25.174 320.624C25.174 322.775 25.245 324.667 25.392 326.306C31.8488 326.306 37.6164 326.16 42.6896 325.861C42.9075 324.842 43.014 323.04 43.014 320.461C43.014 313.985 42.2537 309.395 40.7282 306.681C39.3497 304.265 37.14 303.054 34.0889 303.054H34.094Z" fill="#F5C45E"/>
<path d="M47.8744 246.038V253.696C39.5068 253.426 32.011 253.291 25.3869 253.291L25.3869 277.427C30.7541 277.427 38.2499 277.291 47.8744 277.021V284.68C39.0507 284.302 30.7795 284.117 23.0657 284.117C15.352 284.117 7.52165 284.302 0.654297 284.68L0.654297 277.021C7.56727 277.342 14.2927 277.505 20.8205 277.505L20.8205 253.206C15.575 253.206 8.85458 253.37 0.654297 253.691L0.654297 246.032C7.37468 246.438 14.8452 246.635 23.0657 246.635C32.082 246.635 40.3532 246.432 47.8744 246.032V246.038Z" fill="#F5C45E"/>
<path d="M0.654297 143.598C2.66129 143.598 10.5169 146.988 24.2263 153.774C37.9357 160.56 45.8167 163.95 47.8744 163.95V169.187C46.0144 169.187 38.1891 172.391 24.4088 178.8C10.6284 185.208 2.7069 188.412 0.654297 188.412L0.654297 180.754C2.53965 180.754 9.25496 178.31 20.8002 173.422C32.3455 168.534 38.9544 166.09 40.6218 166.09V165.684C38.7365 165.684 32.1529 163.212 20.8763 158.268C9.59961 153.324 2.85895 150.851 0.65937 150.851L0.65937 143.598H0.654297Z" fill="#F5C45E"/>
<path d="M24.3378 104.31C9.97466 110.921 2.08352 114.221 0.654297 114.221L0.654297 123.569C2.10379 123.569 10.1166 127.032 24.6825 133.964C39.2484 140.896 46.9824 144.359 47.8744 144.359V136.222C46.136 136.222 41.0425 134.555 32.604 131.227C31.0227 130.664 29.4364 130.101 27.8551 129.532C13.5173 123.006 5.97587 119.739 5.22579 119.739V119.295C6.12285 119.295 13.6643 116.135 27.8551 109.823L32.604 107.97C41.1641 104.586 46.2526 102.891 47.8744 102.891V94.3873C46.5465 94.3873 38.701 97.6929 24.3378 104.298V104.31Z" fill="#F5C45E"/>
<path d="M24.3378 197.962C9.97466 204.573 2.08352 207.873 0.654297 207.873L0.654297 217.221C2.10379 217.221 10.1166 220.684 24.6825 227.616C39.2484 234.548 46.9824 238.012 47.8744 238.012V229.874C46.136 229.874 41.0425 228.208 32.604 224.88C31.0227 224.316 29.4364 223.753 27.8551 223.185C13.5173 216.658 5.97587 213.392 5.22579 213.392V212.947C6.12285 212.947 13.6643 209.788 27.8551 203.475L32.604 201.622C41.1641 198.238 46.2526 196.543 47.8744 196.543V188.04C46.5465 188.04 38.701 191.345 24.3378 197.951V197.962Z" fill="#F5C45E"/>
<path d="M47.8755 45.924V51.5665C47.465 51.5665 41.6721 55.9702 30.5018 64.7831C18.7741 73.9959 11.3746 79.2499 8.30837 80.5395V80.9449C14.1368 80.4606 19.1289 80.2185 23.2848 80.2185C31.409 80.2185 39.6043 80.0158 47.8755 79.6159V86.3848C40.0199 85.9286 31.7486 85.6978 23.0669 85.6978C14.3851 85.6978 7.06159 85.9286 0.655433 86.3848L0.655433 78.6474C1.33457 78.6474 6.84366 74.5929 17.1928 66.4782C28.0742 57.9918 35.1595 53.1545 38.4436 51.972V51.5665C32.5443 52.0227 27.542 52.2535 23.4267 52.2535C14.4814 52.2535 6.8893 52.4394 0.650391 52.8167L0.650391 45.924C7.05654 46.3801 14.527 46.611 23.0618 46.611C31.5966 46.611 40.0097 46.3857 47.8704 45.924H47.8755Z" fill="#F5C45E"/>
<path d="M35.6495 0.141487C44.5948 0.141487 49.0699 7.05676 49.0699 20.8928C49.0699 25.9441 48.5479 30.4322 47.5089 34.3516L41.8174 32.9437C43.2213 28.4331 43.9207 24.1477 43.9207 20.0875C43.9207 10.9536 41.5994 6.38663 36.957 6.38663C34.6105 6.38663 32.6035 7.56916 30.936 9.93431C29.8261 11.5223 28.3361 14.6364 26.4761 19.2822C24.5198 24.1702 22.7155 27.5996 21.0734 29.5593C18.8029 32.2736 15.9495 33.6308 12.5133 33.6308C9.07708 33.6308 6.02098 32.2455 3.77071 29.4806C1.2569 26.3946 0 22.0247 0 16.3822C0 9.99066 0.37506 5.60947 1.12515 3.24433L6.89269 4.21297C5.73208 8.29565 5.15431 12.6374 5.15431 17.2269C5.15431 24.1308 7.23225 27.5828 11.3932 27.5828C13.4002 27.5828 15.0828 26.5917 16.436 24.5982C17.2824 23.3086 18.5647 20.4592 20.2828 16.0555C22.2391 11.0324 24.1042 7.40588 25.8679 5.17589C28.5287 1.81964 31.7926 0.141487 35.6596 0.141487H35.6495Z" fill="#F5C45E"/>
<path d="M80.2229 197.013H81.9258V207.273H66.8125V197.204H68.5154V205.357H73.4113V198.269H75.0077V205.357H80.2229V197.013ZM81.9258 190.127H66.8125V188.212H80.2229V179.782H81.9258V190.127ZM81.9258 173.439H66.8125V171.523H81.9258V173.439ZM68.5154 152.754V157.969H81.9258V159.885H68.5154V165.1H66.8125V152.754H68.5154ZM80.2229 136.06H81.9258V146.32H66.8125V136.252H68.5154V144.404H73.4113V137.316H75.0077V144.404H80.2229V136.06Z" fill="#D3B9B6"/>
<path d="M73.9609 334.83V227.509" stroke="#D3B9B6" stroke-width="0.506816" stroke-miterlimit="10"/>
<path d="M73.9609 109.254V1.93846" stroke="#D3B9B6" stroke-width="0.506816" stroke-miterlimit="10"/>
<path d="M29.6875 376.358C32.1717 378.08 34.6584 379.8 37.1426 381.522C40.6587 372.53 49.0625 367.104 57.7548 368.172C66.2247 369.21 73.2372 376.203 75.1199 385.519C75.0906 395.003 75.0613 404.49 75.0319 413.974C75.0319 417.783 75.0319 421.589 75.0319 425.398C78.2766 425.455 81.5212 425.512 84.7659 425.572L84.3282 386.592C82.8074 372.734 73.4989 361.492 61.4103 358.778C48.6688 355.914 35.5337 363.13 29.6875 376.361V376.358Z" fill="#F5C45E"/>
<path d="M56.3743 399.43C56.3743 399.43 47.3323 392.556 41.2538 388.277C36.7352 385.096 30.3804 380.901 22.3213 376.457C21.2871 376.093 15.0032 374.001 8.63855 378.016C1.76048 382.355 0.388771 390.288 0.217614 391.366C0.144261 398.427 0.0733531 405.485 0 412.546C1.12719 413.929 2.36686 415.355 3.72634 416.801C5.61396 418.808 7.46979 420.572 9.23026 422.109C9.1349 415.141 8.97842 408.142 8.92218 401.179C8.59698 389.543 13.7537 383.854 24.0182 388.136C30.955 390.744 37.1925 396.083 44.1488 398.408C46.5254 399.163 48.9901 399.408 51.4523 399.547C53.093 399.508 54.7336 399.441 56.3743 399.43Z" fill="#F5C45E"/>
<path d="M72.6207 421.69V425.572H26.2029C25.0781 424.271 23.9509 422.967 22.8262 421.666C39.4235 421.674 56.0233 421.682 72.6207 421.69Z" fill="#F5C45E"/>
<path d="M72.6221 412.704V408.822H28.0332C26.9525 410.123 25.8718 411.427 24.791 412.729C40.7355 412.72 56.6801 412.712 72.6246 412.704H72.6221Z" fill="#F5C45E"/>
<path d="M72.6205 415.27V419.152H15.1826C13.7889 417.851 12.3976 416.547 11.0039 415.246C31.5428 415.254 52.0816 415.262 72.6181 415.27H72.6205Z" fill="#F5C45E"/>
</svg>
