<svg width="310" height="64" viewBox="0 0 310 64" fill="none" xmlns="http://www.w3.org/2000/svg">
<path d="M94.3651 24.8261C94.3651 28.2385 92.7518 30.8733 89.5294 32.738C86.3848 34.5474 82.0692 35.4539 76.5784 35.4539C75.0552 35.4539 72.0662 35.4023 67.6113 35.2954C67.8857 29.8452 68.0208 23.8348 68.0208 17.2569C68.0208 11.0696 67.8857 5.63779 67.6113 0.961408H71.1285C71.8123 0.961408 73.1881 0.935627 75.2599 0.884036C77.3318 0.832444 78.8345 0.806641 79.7721 0.806641C87.8998 0.806641 91.9616 3.33092 91.9616 8.37581C91.9616 12.3152 90.0372 14.9316 86.1883 16.2324V16.4978C91.6381 17.3785 94.361 20.1534 94.361 24.8298L94.3651 24.8261ZM87.04 9.69139C87.04 6.05052 84.3171 4.23377 78.8672 4.23377C76.1321 4.23377 73.9169 4.36644 72.2177 4.62808C72.3733 5.89207 72.4511 9.47029 72.4511 15.3591C73.4092 15.3959 74.4615 15.4107 75.6162 15.4107C79.4855 15.4107 82.2985 15.0164 84.055 14.2241C86.0491 13.3433 87.044 11.8325 87.044 9.68773L87.04 9.69139ZM89.4148 25.2757C89.4148 20.9494 85.1565 18.7899 76.6398 18.7899C75.0757 18.7899 73.6999 18.8415 72.5084 18.9483C72.5084 23.6432 72.6149 27.8368 72.8319 31.5256C73.573 31.684 74.8832 31.7614 76.7585 31.7614C81.4673 31.7614 84.8043 31.2087 86.7779 30.0994C88.5345 29.0971 89.4148 27.4904 89.4148 25.272V25.2757Z" fill="#F5C45E"/>
<path d="M130.872 35.2959H125.304C125.5 29.2119 125.598 23.7616 125.598 18.9452H108.049C108.049 22.8477 108.147 28.298 108.344 35.2959H102.775C103.05 28.8802 103.185 22.8661 103.185 17.2574C103.185 11.6487 103.05 5.95522 102.775 0.961914H108.344C108.111 5.98838 107.992 10.8785 107.992 15.6249H125.66C125.66 11.8108 125.541 6.9244 125.308 0.961914H130.876C130.581 5.84835 130.438 11.2802 130.438 17.2574C130.438 23.8132 130.586 29.8273 130.876 35.2959H130.872Z" fill="#F5C45E"/>
<path d="M205.356 0.961914C205.356 2.42121 202.891 8.13311 197.957 18.1013C193.023 28.0695 190.558 33.7998 190.558 35.2959H186.75C186.75 33.9435 184.42 28.2537 179.761 18.2339C175.101 8.21418 172.771 2.45438 172.771 0.961914H178.34C178.34 2.33277 180.117 7.21552 183.671 15.6102C187.225 24.0048 189.002 28.8102 189.002 30.0226H189.297C189.297 28.6517 191.095 23.8648 194.69 15.6654C198.285 7.46611 200.082 2.56493 200.082 0.965603H205.356V0.961914Z" fill="#F5C45E"/>
<path d="M233.925 18.1824C229.118 7.73882 226.719 2.00111 226.719 0.961914H219.922C219.922 2.01585 217.404 7.842 212.363 18.433C207.323 29.0239 204.805 34.6474 204.805 35.2959H210.721C210.721 34.032 211.933 30.3284 214.353 24.1928C214.763 23.043 215.172 21.8896 215.586 20.7398C220.331 10.3147 222.706 4.83127 222.706 4.28588H223.03C223.03 4.93814 225.327 10.4216 229.917 20.7398L231.264 24.1928C233.724 30.4169 234.957 34.1167 234.957 35.2959H241.14C241.14 34.3304 238.736 28.6259 233.933 18.1824H233.925Z" fill="#F5C45E"/>
<path d="M165.827 18.1824C161.02 7.73882 158.621 2.00111 158.621 0.961914H151.824C151.824 2.01585 149.306 7.842 144.266 18.433C139.225 29.0239 136.707 34.6474 136.707 35.2959H142.624C142.624 34.032 143.836 30.3284 146.256 24.1928C146.665 23.043 147.074 21.8896 147.488 20.7398C152.234 10.3147 154.608 4.83127 154.608 4.28588H154.932C154.932 4.93814 157.229 10.4216 161.819 20.7398L163.166 24.1928C165.627 30.4169 166.859 34.1167 166.859 35.2959H173.042C173.042 34.3304 170.639 28.6259 165.836 18.1824H165.827Z" fill="#F5C45E"/>
<path d="M276.376 35.2957H272.274C272.274 34.9972 269.072 30.7851 262.664 22.6632C255.965 14.1359 252.145 8.75566 251.207 6.52618H250.912C251.265 10.764 251.441 14.3938 251.441 17.4156C251.441 23.3228 251.588 29.2816 251.879 35.2957H246.957C247.289 29.5838 247.457 23.5697 247.457 17.2572C247.457 10.9446 247.289 5.61963 246.957 0.961674H252.583C252.583 1.45548 255.531 5.46117 261.431 12.9861C267.602 20.898 271.119 26.0498 271.979 28.4377H272.274C271.942 24.1483 271.774 20.5111 271.774 17.5188C271.774 11.0146 271.639 5.49436 271.365 0.958008H276.376C276.045 5.61597 275.877 11.0478 275.877 17.2535C275.877 23.4592 276.041 29.5764 276.376 35.292V35.2957Z" fill="#F5C45E"/>
<path d="M309.665 26.4073C309.665 32.9115 304.637 36.1654 294.577 36.1654C290.904 36.1654 287.641 35.7858 284.791 35.0304L285.815 30.892C289.094 31.9128 292.21 32.4213 295.162 32.4213C301.804 32.4213 305.125 30.7336 305.125 27.358C305.125 25.6518 304.265 24.1925 302.545 22.9801C301.39 22.1731 299.126 21.0897 295.748 19.7373C292.194 18.3148 289.7 17.0029 288.275 15.809C286.302 14.158 285.315 12.0833 285.315 9.58482C285.315 7.08633 286.322 4.86422 288.333 3.22804C290.577 1.40023 293.754 0.486328 297.857 0.486328C302.504 0.486328 305.69 0.759037 307.409 1.30443L306.705 5.49805C303.736 4.65416 300.58 4.23406 297.242 4.23406C292.223 4.23406 289.713 5.74495 289.713 8.77041C289.713 10.2297 290.433 11.4532 291.883 12.4371C292.82 13.0525 294.892 13.9848 298.094 15.2341C301.747 16.6565 304.383 18.0126 306.005 19.295C308.445 21.2297 309.665 23.6029 309.665 26.4146V26.4073Z" fill="#F5C45E"/>
<path d="M166.52 58.2765V59.5146H159.06V48.5257H166.381V49.7639H160.453V53.3237H165.607V54.4845H160.453V58.2765H166.52ZM171.526 59.5146V48.5257H172.919V58.2765H179.048V59.5146H171.526ZM183.66 59.5146V48.5257H185.053V59.5146H183.66ZM198.701 49.7639H194.909V59.5146H193.516V49.7639H189.724V48.5257H198.701V49.7639ZM210.839 58.2765V59.5146H203.379V48.5257H210.7V49.7639H204.772V53.3237H209.926V54.4845H204.772V58.2765H210.839Z" fill="#D3B9B6"/>
<path d="M66.3105 54.2627H144.344" stroke="#D3B9B6" stroke-width="0.368509" stroke-miterlimit="10"/>
<path d="M230.33 54.2627H308.36" stroke="#D3B9B6" stroke-width="0.368509" stroke-miterlimit="10"/>
<path d="M36.1162 22.0732C34.8638 23.8795 33.6134 25.6876 32.361 27.4939C38.8995 30.0505 42.8444 36.1609 42.0681 42.4812C41.3135 48.6397 36.2288 53.7385 29.4552 55.1075C22.5591 55.0861 15.6611 55.0648 8.76497 55.0435C5.99547 55.0435 3.22794 55.0435 0.458447 55.0435C0.416964 57.4027 0.37549 59.7619 0.332031 62.1211L28.6749 61.8029C38.7514 60.6971 46.9255 53.9288 48.899 45.1391C50.981 35.8747 45.7344 26.3241 36.1142 22.0732H36.1162Z" fill="#F5C45E"/>
<path d="M19.3382 41.4765C19.3382 41.4765 24.3359 34.902 27.4472 30.4822C29.7604 27.1968 32.8104 22.5761 36.0421 16.7163C36.3068 15.9643 37.8279 11.3952 34.9082 6.76748C31.7535 1.76638 25.9854 0.769006 25.2012 0.644557C20.0671 0.591221 14.9351 0.539664 9.80103 0.486328C8.79556 1.30592 7.75847 2.20729 6.70756 3.19577C5.24775 4.56827 3.96573 5.91766 2.84766 7.19771C7.91453 7.12838 13.0031 7.01459 18.0661 6.9737C26.5267 6.73725 30.6631 10.4867 27.5499 17.9502C25.6535 22.9939 21.7719 27.5292 20.081 32.5872C19.5318 34.3153 19.354 36.1073 19.2533 37.8976C19.2809 39.0906 19.3303 40.2835 19.3382 41.4765Z" fill="#F5C45E"/>
<path d="M3.15486 53.2899H0.332031V19.5392C1.27824 18.7214 2.22643 17.9018 3.17264 17.084C3.16672 29.152 3.16078 41.2219 3.15486 53.2899Z" fill="#F5C45E"/>
<path d="M9.68575 53.29H12.5086V20.8691C11.5624 20.0833 10.6142 19.2975 9.66797 18.5117C9.67389 30.1051 9.67983 41.6985 9.68575 53.2918V53.29Z" fill="#F5C45E"/>
<path d="M7.82283 53.2901H5V11.5266C5.94621 10.5133 6.8944 9.50166 7.84061 8.48828C7.83469 23.4222 7.82875 38.3562 7.82283 53.2883V53.2901Z" fill="#F5C45E"/>
</svg>
